<svg version="1.1" id="Layer_1" xmlns="http://www.w3.org/2000/svg" x="0" y="0" viewBox="0 0 1080 1080" xml:space="preserve"><style>.st0,.st2{fill-rule:evenodd;clip-rule:evenodd;fill:#3f56bf}.st2{fill:#fff;stroke:#fff;stroke-miterlimit:10}</style><path class="st0" d="M533.75 142.41c.88-1.67 1.86-3.23 3.04-4.6 7.83-9.99 21.84-13.32 33.49-7.34 9.6 4.8 15.08 14.49 14.88 24.48 0 1.3-.08 2.6-.27 3.89a24.039 24.039 0 01-2.66 8.15 25.44 25.44 0 01-8.62 9.79c-7.93 5.68-18.6 6.85-27.91 2.15-13.32-6.76-18.7-23.21-11.95-36.52zM191.83 639.56c-.32-.24-.63-.48-.96-.72-.64-.46-1.29-.89-1.98-1.28-.35-.2-.7-.38-1.07-.55-6.57-3.43-14.01-3.82-20.47-1.67-5.09 1.57-9.59 4.7-13.02 9.01-1.18 1.37-2.16 2.94-3.04 4.6-6.75 13.31-1.37 29.76 11.95 36.52 13.41 6.75 29.76 1.37 36.52-11.95 6.17-11.94 2.45-26.34-7.93-33.96zm0 0c-.32-.24-.63-.48-.96-.72-.64-.46-1.29-.89-1.98-1.28-.35-.2-.7-.38-1.07-.55-6.57-3.43-14.01-3.82-20.47-1.67-5.09 1.57-9.59 4.7-13.02 9.01-1.18 1.37-2.16 2.94-3.04 4.6-6.75 13.31-1.37 29.76 11.95 36.52 13.41 6.75 29.76 1.37 36.52-11.95 6.17-11.94 2.45-26.34-7.93-33.96zm695.13 68.93c-11.65-5.98-25.66-2.65-33.49 7.34-1.18 1.37-2.16 2.94-3.04 4.6-2.64 5.19-3.42 10.77-2.64 16.16.21 1.48.54 2.93 1 4.35.04.14.09.29.14.43.14.43.3.86.46 1.29.15.36.3.73.46 1.09.16.36.33.71.5 1.07.13.26.27.52.41.78.11.21.22.41.34.61.17.29.34.58.52.87.1.16.2.32.31.48.17.26.35.53.54.79.12.17.24.35.37.51.17.23.34.46.52.69a27.807 27.807 0 00.99 1.17c.15.17.3.33.45.5.09.09.18.18.27.28.29.32.61.63.93.92.04.04.08.08.13.12.33.32.66.62 1.01.89a25 25 0 002.31 1.75 29.19 29.19 0 002.63 1.58h.01c.09.1.19.1.29.2 13.41 6.75 29.76 1.37 36.52-11.95 6.85-13.42 1.47-29.77-11.94-36.52zm-695.13-68.93c-.32-.24-.63-.48-.96-.72-.64-.46-1.29-.89-1.98-1.28-.35-.2-.7-.38-1.07-.55-6.57-3.43-14.01-3.82-20.47-1.67-5.09 1.57-9.59 4.7-13.02 9.01-1.18 1.37-2.16 2.94-3.04 4.6-6.75 13.31-1.37 29.76 11.95 36.52 13.41 6.75 29.76 1.37 36.52-11.95 6.17-11.94 2.45-26.34-7.93-33.96z"/><linearGradient id="SVGID_1_" gradientUnits="userSpaceOnUse" x1="540" y1="1012.51" x2="540" y2="67.49"><stop offset="0" stop-color="#4642b1"/><stop offset=".22" stop-color="#4946b3"/><stop offset=".423" stop-color="#5351b7"/><stop offset=".618" stop-color="#6463bf"/><stop offset=".809" stop-color="#7c7eca"/><stop offset=".995" stop-color="#9a9fd9"/><stop offset="1" stop-color="#9ba0d9"/></linearGradient><circle cx="540" cy="540" r="472.51" fill-rule="evenodd" clip-rule="evenodd" fill="url(#SVGID_1_)"/><path class="st2" d="M707.66 773.36v.01c-3.13 9.5-6.36 18.59-9.89 27.41v.01c-34.37 86.76-86.36 142.18-144.82 142.47v.1c-63.16.39-119.36-63.35-154.52-161.66h30.65c29.38 84.01 74.03 137.58 123.67 137.28 46.12-.29 87.25-46.81 115.74-120.83v-.01c3.33-8.81 6.56-18.1 9.5-27.7v-.02h.01c19.67-62.18 31.03-139.52 30.54-223.33-.39-68.74-8.71-132.97-22.91-188.1-.01-.02-.01-.04-.01-.06-2.55-10.16-5.39-19.94-8.41-29.41 0-.01 0-.01-.01-.02 10.39-.51 20.58-.74 30.55-.69 0 .01.01.02.01.03 3.04 9.4 5.87 19.09 8.52 29.08v.01c15.17 56.08 23.89 120.41 24.28 188.95.49 84.11-11.65 162.24-32.9 226.48zM546.73 211.08c2.15.39 4.31.49 6.56.49 1.08 0 2.15 0 3.23-.2-3.33.2-6.56.1-9.79-.29zm-4.31-.59c1.37.29 2.84.49 4.31.59a48.17 48.17 0 01-5.48-.88c.39.1.78.2 1.17.29zm-25.24-92.9c.24-.27.5-.53.75-.77-.26.24-.51.5-.76.77h.01zm-5.88 6.07c.74-1.03 1.58-2 2.5-2.92-.92.91-1.77 1.89-2.51 2.92h.01zm-4.42 61.78a60.53 60.53 0 01-4.7-9.89c1.17 3.53 2.74 6.76 4.7 9.89zm-7.84-27.42c0 .59 0 1.08.1 1.57-.1-2.75.1-5.39.39-8.23-.39 2.15-.49 4.41-.49 6.66zM894 687.69c-23.21-11.75-50.92-5.09-66.49 14.49-2.15 2.84-4.21 5.87-5.87 9.2-7.44 14.59-7.44 31.04-1.57 45.04 3.13 7.64 8.03 14.59 14.49 20.07l.01.01c3.23 2.83 6.84 5.28 10.76 7.24 26.44 13.41 58.95 2.74 72.36-23.7 13.52-26.53 2.84-58.94-23.69-72.35zm-.1 60.32c-6.76 13.32-23.11 18.7-36.52 11.95-.1-.1-.2-.1-.29-.2h-.01a29.19 29.19 0 01-2.63-1.58 25 25 0 01-2.31-1.75c-.35-.27-.68-.57-1.01-.89-.05-.04-.09-.08-.13-.12-.32-.29-.64-.6-.93-.92-.09-.1-.18-.19-.27-.28-.16-.16-.31-.33-.45-.5-.18-.2-.35-.4-.52-.6-.17-.19-.32-.38-.47-.57-.18-.23-.35-.46-.52-.69-.14-.17-.26-.34-.37-.51-.19-.26-.37-.53-.54-.79a6.48 6.48 0 01-.31-.48c-.18-.29-.35-.58-.52-.87-.12-.2-.24-.4-.34-.61-.14-.26-.28-.52-.41-.78-.17-.35-.34-.71-.5-1.07-.16-.36-.31-.72-.46-1.09-.16-.43-.32-.86-.46-1.29-.05-.14-.1-.29-.14-.43a25.88 25.88 0 01-1-4.35c-.78-5.39 0-10.97 2.64-16.16.88-1.66 1.86-3.23 3.04-4.6 7.83-9.99 21.84-13.32 33.49-7.34 13.41 6.75 18.79 23.1 11.94 36.52z"/><path class="st2" d="M834.56 776.49l.01.01h-.01c-33.59 19.39-81.18 27.42-136.79 24.28-9.5-.49-19.29-1.37-29.28-2.64-70.21-8.32-150.5-32.9-230.6-73.54-91.65-46.51-166.66-105.56-215.42-164.9-.01-.02-.03-.03-.04-.05-5.86-7.13-11.43-14.27-16.41-21.39-.01-.02-.02-.03-.03-.05-42.48-59.42-57.34-117.46-34.93-161.71v-.1c28.49-56.3 110.84-77.16 214.34-63.45l-14 27.22c-88.13-12.24-156.18 2.94-178.6 47.29-17.53 34.47-4.41 80.88 31.63 129.94 0 0 0 .01.01.01 5.18 7.04 10.85 14.18 17.02 21.41 0 .01 0 .01.01.02 47.1 55.03 120.93 111.73 210.82 157.26 79.51 40.34 158.53 65.31 225.7 74.32h.01c10.18 1.37 20.06 2.35 29.66 2.94 46.22 3.13 85.09-2.45 112.41-16.94 3.13 7.64 8.03 14.59 14.49 20.07zM576.55 109.38c.69.29 1.26.59 1.95.98-.39-.29-.78-.49-1.17-.69-.2-.1-.49-.2-.78-.29zm-65.74 14.77c-.41.48-.77.99-1.14 1.53.53-.7 1.1-1.35 1.61-2.01-.19.1-.37.29-.47.48z"/><path class="st2" d="M605.34 170.31c-.02-.01-.04-.03-.06-.04.01-.01.01-.02.01-.03.1-.49.29-1.08.39-1.66.29-1.76.59-3.43.78-5.19v-.29c.2-1.67.29-3.23.29-4.9v-1.08c-.05-2.31-.15-4.66-.54-7.01 0-.29-.1-.69-.1-.98-.1-.49-.2-.98-.29-1.47-.39-2.06-.88-4.01-1.47-5.97-.1-.69-.29-1.27-.59-1.86a57.42 57.42 0 00-3.52-7.93c-.88-1.47-1.76-2.94-2.74-4.41-.88-1.27-1.76-2.45-2.64-3.62-.1-.2-.29-.39-.49-.59a60.424 60.424 0 00-3.43-3.72c-2.15-2.15-4.5-4.11-6.95-5.87-.49-.39-.98-.69-1.47-.98-1.27-.78-2.55-1.57-3.82-2.25 0 0-.1-.1-.2-.1-.69-.39-1.26-.69-1.95-.98-.2-.1-.39-.29-.69-.29-1.08-.69-2.25-1.08-3.43-1.47-.78-.39-1.57-.68-2.45-.88-1.66-.69-3.23-1.17-4.9-1.47-1.96-.49-3.82-.78-5.78-.98h-.1c-2.06-.29-4.11-.39-6.17-.39-5.68 0-11.26.88-16.55 2.64-.98.2-1.86.59-2.84.98-.27.1-.55.2-.83.31-.56.22-1.12.45-1.68.69-.27.12-.55.25-.82.37-1.37.59-2.74 1.27-4.02 2.15-.98.49-1.86 1.08-2.84 1.66-1.08.69-2.06 1.37-3.04 2.15-.88.59-1.7 1.23-2.48 1.97-.25.24-.51.5-.75.77h-.01c-.88.7-1.65 1.47-2.44 2.25-.32.3-.63.6-.93.9-.92.92-1.76 1.89-2.5 2.92h-.01l-.01.01c-.51.66-1.08 1.31-1.61 2.01-.17.24-.35.48-.53.72-.59.88-1.27 1.86-1.86 2.84-.78 1.17-1.57 2.45-2.15 3.82-.1.1-.1.2-.2.29-.1.2-.2.29-.2.49-.78 1.57-1.47 3.13-2.06 4.7-.29.59-.49 1.17-.59 1.76-.49 1.17-.88 2.35-1.08 3.52-.29.69-.39 1.27-.59 1.96-.39 1.86-.69 3.72-.88 5.58-.29 2.84-.49 5.48-.39 8.23 0 .49.1 1.08.1 1.57v.1c.1 1.17.2 2.45.39 3.62.49 3.62 1.37 7.15 2.55 10.67a60.53 60.53 0 004.7 9.89c1.27 2.06 2.64 4.11 4.21 6.07.78.98 1.57 1.86 2.45 2.74.78.98 1.67 1.86 2.55 2.64.88.88 1.76 1.57 2.64 2.35 3.04 2.45 6.27 4.6 9.89 6.46 1.96.98 3.92 1.86 5.87 2.55 1.76.69 3.52 1.17 5.29 1.66.49.1.98.2 1.47.29 1.76.39 3.62.69 5.48.88 3.23.39 6.46.49 9.79.29 2.45-.2 4.8-.49 7.25-.98 1.17-.29 2.35-.59 3.52-.88 1.17-.29 2.35-.69 3.53-1.08 2.25-.88 4.5-1.76 6.66-2.94 1.08-.49 2.15-1.08 3.23-1.76 3.13-1.86 6.17-4.11 8.81-6.66.88-.69 1.66-1.47 2.45-2.35.77-.77 1.46-1.56 2.14-2.33.02.01.04.03.06.04 33.59 23.5 62.66 72.36 83.03 137.07 10.39-.51 20.58-.74 30.55-.69-24.28-74.6-60.31-131.38-102.41-158.5zm-64.64 11.62c-13.32-6.76-18.7-23.21-11.95-36.52.88-1.67 1.86-3.23 3.04-4.6 7.83-9.99 21.84-13.32 33.49-7.34 9.6 4.8 15.08 14.49 14.88 24.48 0 1.3-.08 2.6-.27 3.89-.06.51-.15 1.02-.26 1.52-.46 2.27-1.25 4.49-2.4 6.63a25.44 25.44 0 01-8.62 9.79c-7.93 5.68-18.6 6.85-27.91 2.15z"/><g><path class="st2" d="M811.84 620.81l-9.3-29.18c70.99-53.66 108.3-112.61 92.92-159.71-16.05-48.92-85.21-74.4-179.18-73.99-9.95.04-20.18.37-30.66 1-58.32 3.48-124.22 16.06-191.92 38.23-108.19 35.42-198.25 87.85-252.24 141.66-6.96 6.93-13.31 13.89-19.03 20.83-5.86-7.13-11.43-14.27-16.41-21.39-.01-.02-.02-.03-.03-.05 5.65-6.96 11.81-13.91 18.45-20.8 56.82-59.02 148.73-114.52 259.27-150.72 67.57-22.1 133.79-34.27 193.49-37.19 10.39-.51 20.58-.74 30.55-.69 108.63.52 190.62 33.89 210.82 95.46 19.69 60.04-23.79 132.99-106.73 196.54z"/></g><path class="st2" d="M194.86 616.21c-1.27-.68-2.55-1.27-3.92-1.66h-.01v-.01c5.45-17.8 16.19-36.31 31.5-54.89-5.86-7.13-11.43-14.27-16.41-21.39-.01-.02-.02-.03-.03-.05-19.65 24.21-33.2 48.7-39.54 72.4 0 .01 0 .01-.01.02-14.68 1.09-28.57 8.14-38.07 20.07-2.15 2.84-4.21 5.87-5.88 9.2-13.41 26.44-2.74 58.95 23.7 72.36 26.44 13.42 58.95 2.74 72.36-23.7 13.52-26.53 2.84-58.94-23.69-72.35zm-.1 60.31c-6.76 13.32-23.11 18.7-36.52 11.95-13.32-6.76-18.7-23.21-11.95-36.52.88-1.66 1.86-3.23 3.04-4.6 3.43-4.31 7.93-7.44 13.02-9.01 6.46-2.15 13.9-1.76 20.47 1.67.37.17.72.35 1.07.55.69.39 1.34.82 1.98 1.28.33.24.64.48.96.72 10.38 7.62 14.1 22.02 7.93 33.96z"/><path d="M554.38 503.72c-19.46-9.86-42.71-4.27-55.77 12.15-1.81 2.38-3.53 4.93-4.93 7.72-11.25 22.17-2.3 49.44 19.87 60.69s49.44 2.3 60.69-19.88c11.35-22.24 2.4-49.42-19.86-60.68z" fill-rule="evenodd" clip-rule="evenodd" fill="#fff"/></svg>