<svg xmlns="http://www.w3.org/2000/svg" xmlns:xlink="http://www.w3.org/1999/xlink" width="640" height="640"><defs><path d="M425.97 699.31c-168.71-53.65-172.21-154.6-274.04-215.62-48.93-29.33-128.87-30.74-176.9-18.43" id="a"/><path d="M425.97 699.31c-168.71-53.65-172.21-154.6-274.04-215.62-48.93-29.33-128.87-30.74-176.9-18.43" id="b"/><path d="M716.96 599.47s-90.54 14.75-174.16 11.79c-71.59-2.53-169.46-46.27-230.31-52.84-82.03-8.87-149.83 36.36-299.32 3.75-46.83-10.22-105.31-46.21-105.31-46.21" id="c"/><path d="M716.96 599.47s-90.54 14.75-174.16 11.79c-71.59-2.53-169.46-46.27-230.31-52.84-82.03-8.87-149.83 36.36-299.32 3.75-46.83-10.22-105.31-46.21-105.31-46.21" id="d"/><path d="M-91.08 482.47c-.33 11.2-2.02 67.21-5.06 168.03 81.08 2.87 729.7 25.84 810.78 28.71.77-25.33 1.19-39.4 1.28-42.22-35.49 14.49-93.49 34.6-174.77 31.72-222.91-7.89-310.84-169.04-457.72-201.54-74.06-15.72-127.77 10.3-174.51 15.3z" id="e"/><path d="M-91.08 482.47c-.33 11.2-2.02 67.21-5.06 168.03 81.08 2.87 729.7 25.84 810.78 28.71.77-25.33 1.19-39.4 1.28-42.22-35.49 14.49-93.49 34.6-174.77 31.72-222.91-7.89-310.84-169.04-457.72-201.54-74.06-15.72-127.77 10.3-174.51 15.3z" id="g"/><path d="M716.19 623.34c-30.35-1.07-104.48-3.7-159.64-19.97-50.43-14.88-77.32-29.56-112.78-37.08-60.14-12.78-122.29 23.03-216.61 18.94-75.56-3.24-121.09-21.8-146.51-31.53C31.87 531.27-56.54 478.44-90.1 444.44" id="h"/><path d="M716.19 623.34c-30.35-1.07-104.48-3.7-159.64-19.97-50.43-14.88-77.32-29.56-112.78-37.08-60.14-12.78-122.29 23.03-216.61 18.94-75.56-3.24-121.09-21.8-146.51-31.53C31.87 531.27-56.54 478.44-90.1 444.44" id="i"/><path d="M227.24 585.23c-75.56-3.24-121.09-21.8-146.51-31.53-48.78-22.43-137.19-75.26-170.75-109.26-.41 13.74-2.48 82.46-6.21 206.15 81.08 2.87 729.7 25.84 810.78 28.71.98-32.54 1.53-50.62 1.64-54.23-30.32-1.08-100.36-2.66-173.03-25.94-37.06-11.87-66.68-25.78-102.13-33.33-56.94-12.36-119.47 23.49-213.79 19.43z" id="j"/><path d="M227.24 585.23c-75.56-3.24-121.09-21.8-146.51-31.53-48.78-22.43-137.19-75.26-170.75-109.26-.41 13.74-2.48 82.46-6.21 206.15 81.08 2.87 729.7 25.84 810.78 28.71.98-32.54 1.53-50.62 1.64-54.23-30.32-1.08-100.36-2.66-173.03-25.94-37.06-11.87-66.68-25.78-102.13-33.33-56.94-12.36-119.47 23.49-213.79 19.43z" id="l"/><path d="M5.73 506.51a.38.38 0 01-.39.37c-.21 0-.37-.18-.36-.4 0-.21.18-.38.38-.37.21.01.38.18.37.4z" id="m"/><path d="M5.73 506.51a.38.38 0 01-.39.37c-.21 0-.37-.18-.36-.4 0-.21.18-.38.38-.37.21.01.38.18.37.4z" id="n"/><path d="M-3.28 514.03c-.01.22-.18.39-.39.38a.38.38 0 01-.36-.4c0-.22.18-.38.38-.38.21.01.38.19.37.4z" id="o"/><path d="M-3.28 514.03c-.01.22-.18.39-.39.38a.38.38 0 01-.36-.4c0-.22.18-.38.38-.38.21.01.38.19.37.4z" id="p"/><path d="M600.35 242.73c0 .26.22.47.48.47a.47.47 0 100-.94c-.26 0-.48.21-.48.47z" id="q"/><path d="M600.35 242.73c0 .26.22.47.48.47a.47.47 0 100-.94c-.26 0-.48.21-.48.47z" id="r"/><path d="M-208.44 376.11c-.01.22-.18.38-.39.38a.38.38 0 01-.36-.4c0-.22.18-.39.38-.38.21.01.37.19.37.4z" id="s"/><path d="M-208.44 376.11c-.01.22-.18.38-.39.38a.38.38 0 01-.36-.4c0-.22.18-.39.38-.38.21.01.37.19.37.4z" id="t"/><path d="M605.16 247.61c0 .26.21.47.47.47.27 0 .48-.21.48-.47s-.21-.47-.48-.47a.47.47 0 00-.47.47z" id="u"/><path d="M605.16 247.61c0 .26.21.47.47.47.27 0 .48-.21.48-.47s-.21-.47-.48-.47a.47.47 0 00-.47.47z" id="v"/><path d="M-210.78 369.17a.38.38 0 01-.39.37c-.21 0-.37-.18-.37-.4a.38.38 0 01.39-.37c.21.01.37.19.37.4z" id="w"/><path d="M-210.78 369.17a.38.38 0 01-.39.37c-.21 0-.37-.18-.37-.4a.38.38 0 01.39-.37c.21.01.37.19.37.4z" id="x"/><path d="M603.34 233.88c0 .27.21.48.47.48s.48-.21.48-.48c0-.26-.22-.47-.48-.47a.47.47 0 00-.47.47z" id="y"/><path d="M603.34 233.88c0 .27.21.48.47.48s.48-.21.48-.48c0-.26-.22-.47-.48-.47a.47.47 0 00-.47.47z" id="z"/><path d="M-217.45 383.67a.38.38 0 01-.39.37c-.21 0-.37-.18-.37-.4a.38.38 0 01.39-.37c.21.01.37.18.37.4z" id="A"/><path d="M-217.45 383.67a.38.38 0 01-.39.37c-.21 0-.37-.18-.37-.4a.38.38 0 01.39-.37c.21.01.37.18.37.4z" id="B"/><linearGradient id="f" gradientUnits="userSpaceOnUse" x1="332.81" y1="543.98" x2="291.03" y2="617.22"><stop offset="0%"/><stop offset="100%" stop-color="#001d99" stop-opacity="0"/></linearGradient><linearGradient id="k" gradientUnits="userSpaceOnUse" x1="313.14" y1="532.8" x2="311.35" y2="592.29"><stop offset="0%" stop-color="#fff"/><stop offset="100%" stop-color="#0a19a3" stop-opacity=".5"/></linearGradient></defs><use xlink:href="#a" opacity=".05" fill-opacity="0"/><use xlink:href="#a" opacity=".05" fill-opacity="0" stroke="#000" stroke-width=".3"/><use xlink:href="#b" opacity=".05" fill-opacity="0"/><use xlink:href="#b" opacity=".05" fill-opacity="0" stroke="#000" stroke-width=".3"/><use xlink:href="#c" opacity=".05" fill-opacity="0"/><use xlink:href="#c" opacity=".05" fill-opacity="0" stroke="#000" stroke-width=".3"/><use xlink:href="#d" opacity=".05" fill-opacity="0"/><use xlink:href="#d" opacity=".05" fill-opacity="0" stroke="#000" stroke-width=".3"/><use xlink:href="#e" opacity=".05" fill="url(#f)"/><use xlink:href="#e" opacity=".05" fill-opacity="0" stroke="#000" stroke-width=".3"/><use xlink:href="#g" opacity=".05" fill-opacity="0"/><use xlink:href="#g" opacity=".05" fill-opacity="0" stroke="#000" stroke-width=".3"/><use xlink:href="#h" opacity=".05" fill-opacity="0"/><use xlink:href="#h" opacity=".05" fill-opacity="0" stroke="#000" stroke-width=".3"/><use xlink:href="#i" opacity=".05" fill-opacity="0"/><use xlink:href="#i" opacity=".05" fill-opacity="0" stroke="#000" stroke-width=".3"/><use xlink:href="#j" opacity=".05" fill="url(#k)"/><use xlink:href="#j" opacity=".05" fill-opacity="0" stroke="#000" stroke-width=".3"/><use xlink:href="#l" opacity=".05" fill-opacity="0"/><use xlink:href="#l" opacity=".05" fill-opacity="0" stroke="#000" stroke-width=".3"/><use xlink:href="#m" opacity=".05" fill="#00bdff"/><use xlink:href="#m" opacity=".05" fill-opacity="0" stroke="#000" stroke-width=".3"/><use xlink:href="#n" opacity=".05" fill-opacity="0"/><use xlink:href="#n" opacity=".05" fill-opacity="0" stroke="#000" stroke-width=".3"/><use xlink:href="#o" opacity=".05" fill="#00bdff"/><use xlink:href="#o" opacity=".05" fill-opacity="0" stroke="#000" stroke-width=".3"/><g><use xlink:href="#p" opacity=".05" fill-opacity="0"/><use xlink:href="#p" opacity=".05" fill-opacity="0" stroke="#000" stroke-width=".3"/></g><g><use xlink:href="#q" opacity=".05" fill="#00bdff"/><use xlink:href="#q" opacity=".05" fill-opacity="0" stroke="#000" stroke-width=".3"/></g><g><use xlink:href="#r" opacity=".05" fill-opacity="0"/><use xlink:href="#r" opacity=".05" fill-opacity="0" stroke="#000" stroke-width=".3"/></g><g><use xlink:href="#s" opacity=".05" fill="#00bdff"/><use xlink:href="#s" opacity=".05" fill-opacity="0" stroke="#000" stroke-width=".3"/></g><g><use xlink:href="#t" opacity=".05" fill-opacity="0"/><use xlink:href="#t" opacity=".05" fill-opacity="0" stroke="#000" stroke-width=".3"/></g><g><use xlink:href="#u" opacity=".05" fill="#00bdff"/><use xlink:href="#u" opacity=".05" fill-opacity="0" stroke="#000" stroke-width=".3"/></g><g><use xlink:href="#v" opacity=".05" fill-opacity="0"/><use xlink:href="#v" opacity=".05" fill-opacity="0" stroke="#000" stroke-width=".3"/></g><g><use xlink:href="#w" opacity=".05" fill="#00bdff"/><use xlink:href="#w" opacity=".05" fill-opacity="0" stroke="#000" stroke-width=".3"/></g><g><use xlink:href="#x" opacity=".05" fill-opacity="0"/><use xlink:href="#x" opacity=".05" fill-opacity="0" stroke="#000" stroke-width=".3"/></g><g><use xlink:href="#y" opacity=".05" fill="#00bdff"/><use xlink:href="#y" opacity=".05" fill-opacity="0" stroke="#000" stroke-width=".3"/></g><g><use xlink:href="#z" opacity=".05" fill-opacity="0"/><use xlink:href="#z" opacity=".05" fill-opacity="0" stroke="#000" stroke-width=".3"/></g><g><use xlink:href="#A" opacity=".05" fill="#00bdff"/><use xlink:href="#A" opacity=".05" fill-opacity="0" stroke="#000" stroke-width=".3"/></g><g><use xlink:href="#B" opacity=".05" fill-opacity="0"/><use xlink:href="#B" opacity=".05" fill-opacity="0" stroke="#000" stroke-width=".3"/></g></svg>