<svg xmlns="http://www.w3.org/2000/svg" xmlns:xlink="http://www.w3.org/1999/xlink" width="640" height="640"><defs><path d="M449.39 637.9c-176.81-8.91-205.92-105.64-319.92-138.7-54.8-15.9-132.46 3.1-175.77 27.23" id="a"/><path d="M449.39 637.9c-176.81-8.91-205.92-105.64-319.92-138.7-54.8-15.9-132.46 3.1-175.77 27.23" id="b"/><path d="M716.96 599.47s-90.54 14.75-174.16 11.79c-71.59-2.53-169.46-46.27-230.31-52.84-82.03-8.87-149.83 36.36-299.32 3.75-46.83-10.22-105.31-46.21-105.31-46.21" id="c"/><path d="M716.96 599.47s-90.54 14.75-174.16 11.79c-71.59-2.53-169.46-46.27-230.31-52.84-82.03-8.87-149.83 36.36-299.32 3.75-46.83-10.22-105.31-46.21-105.31-46.21" id="d"/><path d="M-84.95 474.46c-.08 11.21-.52 67.24-1.3 168.1 81.12 1.06 730.09 9.51 811.22 10.57.2-25.34.3-39.42.33-42.24-35.16 15.28-92.69 36.68-174.02 35.62-223.03-2.9-314.54-162.04-462.11-191.25-74.39-14.06-127.51 13.16-174.12 19.2z" id="e"/><path d="M-92.95 470.46c-.08 11.2-.52 67.24-1.3 168.1 81.12 1.06 730.09 9.51 811.22 10.57.2-25.34.3-39.42.33-42.24-35.16 15.28-92.69 36.69-174.02 35.62-223.03-2.9-314.54-162.04-462.11-191.25-74.39-14.06-127.51 13.15-174.12 19.2z" id="g"/><path d="M227.67 564.49c-75.62-1.08-121.66-18.34-147.35-27.34-49.4-21.03-139.28-71.3-173.8-104.34-.01 13.75-.13 82.49-.33 206.24 81.12.56 730.15 5.02 811.27 5.57.06-32.55.09-50.63.1-54.25-30.34-.21-100.41.2-173.7-20.99-37.4-10.81-67.39-23.86-103.04-30.4-57.27-10.74-118.75 26.88-213.15 25.51z" id="h"/><path d="M5.73 506.51a.38.38 0 01-.39.37c-.21 0-.37-.18-.36-.4 0-.21.18-.38.38-.37.21.01.38.18.37.4z" id="i"/><path d="M-3.28 514.03c-.01.22-.18.39-.39.38a.38.38 0 01-.36-.4c0-.22.18-.38.38-.38.21.01.38.19.37.4z" id="j"/><path d="M-3.28 514.03c-.01.22-.18.39-.39.38a.38.38 0 01-.36-.4c0-.22.18-.38.38-.38.21.01.38.19.37.4z" id="k"/><path d="M-208.44 376.11c-.01.22-.18.38-.39.38a.38.38 0 01-.36-.4c0-.22.18-.39.38-.38.21.01.37.19.37.4z" id="l"/><path d="M-208.44 376.11c-.01.22-.18.38-.39.38a.38.38 0 01-.36-.4c0-.22.18-.39.38-.38.21.01.37.19.37.4z" id="m"/><path d="M-210.78 369.17a.38.38 0 01-.39.37c-.21 0-.37-.18-.37-.4a.38.38 0 01.39-.37c.21.01.37.19.37.4z" id="n"/><path d="M-210.78 369.17a.38.38 0 01-.39.37c-.21 0-.37-.18-.37-.4a.38.38 0 01.39-.37c.21.01.37.19.37.4z" id="o"/><path d="M-217.45 383.67a.38.38 0 01-.39.37c-.21 0-.37-.18-.37-.4a.38.38 0 01.39-.37c.21.01.37.18.37.4z" id="p"/><path d="M-217.45 383.67a.38.38 0 01-.39.37c-.21 0-.37-.18-.37-.4a.38.38 0 01.39-.37c.21.01.37.18.37.4z" id="q"/><path d="M307.84 647.53c-75.68-3.42-122.03-33.39-147.88-49.07-49.78-36.4-140.54-122.82-175.63-179.09.21 23.12 1.24 138.69 3.1 346.73l811.79 26.49c-.49-54.73-.76-85.12-.81-91.21-30.36-.99-100.45-1.78-174.14-38.95-37.59-18.97-67.82-41.55-103.6-53.29-57.47-19.26-118.36 42.68-212.83 38.39z" id="r"/><path d="M322.19 609.55c-75.59-.26-121.46-12.16-147.06-18.36-49.18-14.54-138.57-49.51-172.76-72.65-.15 9.73-.92 58.36-2.3 145.9 81.1-.15 729.94-1.33 811.04-1.48.36-23.03.57-35.82.61-38.38-30.33.06-100.38.81-173.46-13.68-37.28-7.41-67.14-16.44-102.73-20.82-57.15-7.22-118.98 19.8-213.34 19.47z" id="s"/><linearGradient id="f" gradientUnits="userSpaceOnUse" x1="340.21" y1="526.47" x2="300.08" y2="600.63"><stop offset="0%"/><stop offset="100%" stop-color="#001d99" stop-opacity="0"/></linearGradient></defs><use xlink:href="#a" opacity=".06" fill="#8a8a8a"/><use xlink:href="#a" opacity=".06" fill-opacity="0" stroke="#000" stroke-opacity="0"/><use xlink:href="#b" opacity=".06" fill-opacity="0"/><use xlink:href="#b" opacity=".06" fill-opacity="0" stroke="#000" stroke-width=".5"/><use xlink:href="#c" opacity=".06" fill="#8a8a8a"/><use xlink:href="#c" opacity=".06" fill-opacity="0" stroke="#000" stroke-width=".5" stroke-opacity="0"/><use xlink:href="#d" opacity=".06" fill-opacity="0"/><use xlink:href="#d" opacity=".06" fill-opacity="0" stroke="#000" stroke-width=".3"/><use xlink:href="#e" opacity=".06" fill="url(#f)"/><use xlink:href="#e" opacity=".06" fill-opacity="0" stroke="#000" stroke-opacity="0"/><use xlink:href="#g" opacity=".04" fill-opacity="0"/><use xlink:href="#g" opacity=".04" fill-opacity="0" stroke="#000" stroke-width=".5"/><use xlink:href="#h" opacity=".04" fill="#8a8a8a"/><use xlink:href="#h" opacity=".04" fill-opacity="0" stroke="#000" stroke-opacity="0"/><use xlink:href="#i" opacity=".06" fill="#8a8a8a"/><use xlink:href="#i" opacity=".06" fill-opacity="0" stroke="#000" stroke-opacity="0"/><use xlink:href="#j" opacity=".06" fill="#8a8a8a"/><use xlink:href="#j" opacity=".06" fill-opacity="0" stroke="#000" stroke-opacity="0"/><g><use xlink:href="#k" opacity=".06" fill-opacity="0"/><use xlink:href="#k" opacity=".06" fill-opacity="0" stroke="#000"/></g><g><use xlink:href="#l" fill="#8a8a8a"/><use xlink:href="#l" fill-opacity="0" stroke="#000" stroke-opacity="0"/></g><g><use xlink:href="#m" fill-opacity="0"/><use xlink:href="#m" fill-opacity="0" stroke="#000"/></g><g><use xlink:href="#n" fill="#8a8a8a"/><use xlink:href="#n" fill-opacity="0" stroke="#000" stroke-opacity="0"/></g><g><use xlink:href="#o" fill-opacity="0"/><use xlink:href="#o" fill-opacity="0" stroke="#000"/></g><g><use xlink:href="#p" fill="#8a8a8a"/><use xlink:href="#p" fill-opacity="0" stroke="#000" stroke-opacity="0"/></g><g><use xlink:href="#q" fill-opacity="0"/><use xlink:href="#q" fill-opacity="0" stroke="#000"/></g><g><use xlink:href="#r" opacity=".03" fill-opacity="0"/><use xlink:href="#r" opacity=".03" fill-opacity="0" stroke="#000" stroke-width=".3"/></g><g><use xlink:href="#s" opacity=".04" fill-opacity="0"/><use xlink:href="#s" opacity=".04" fill-opacity="0" stroke="#000" stroke-width=".3"/></g></svg>