<svg version="1.1" id="Layer_1" xmlns="http://www.w3.org/2000/svg" x="0" y="0" viewBox="0 0 1080 1080" xml:space="preserve"><style>.st1{fill-rule:evenodd;clip-rule:evenodd;fill:#fff;stroke:#fff;stroke-miterlimit:10}</style><circle cx="540" cy="540" r="472.51" fill-rule="evenodd" clip-rule="evenodd" fill="#3f56bf"/><path class="st1" d="M745.56 543.88c.49 84.11-11.65 162.25-32.9 226.49-3.13 9.5-6.36 18.6-9.89 27.42-34.37 86.76-86.36 142.18-144.82 142.47v.1c-63.16.39-119.36-63.35-154.52-161.66h30.65c29.38 84.01 74.03 137.58 123.67 137.28 46.12-.29 87.25-46.81 115.74-120.83 3.33-8.81 6.56-18.11 9.5-27.71 19.68-62.18 31.04-139.53 30.55-223.35-.39-68.74-8.71-132.97-22.91-188.1-2.55-10.18-5.39-19.98-8.42-29.47-20.37-64.72-49.45-113.59-83.04-137.09-8.23-5.78-16.84-9.99-25.56-12.63a25.44 25.44 0 008.62-9.79c2.06-3.82 2.94-7.93 2.94-12.04 8.62 2.94 16.94 7.05 25.17 12.34 42.11 27.12 78.14 83.92 102.42 158.53 3.04 9.4 5.87 19.09 8.52 29.08 15.17 56.08 23.89 120.42 24.28 188.96z"/><path class="st1" d="M611.21 147.11c0-.29-.1-.69-.1-.98-.1-.49-.2-.98-.29-1.47-.39-2.06-.88-4.01-1.47-5.97-.1-.69-.29-1.27-.59-1.86a57.42 57.42 0 00-3.52-7.93c-.88-1.47-1.76-2.94-2.74-4.41-.88-1.27-1.76-2.45-2.64-3.62-.1-.2-.29-.39-.49-.59a60.424 60.424 0 00-3.43-3.72c-2.15-2.15-4.5-4.11-6.95-5.87-.49-.39-.98-.69-1.47-.98-1.27-.78-2.55-1.57-3.82-2.25 0 0-.1-.1-.2-.1-.69-.39-1.27-.69-1.96-.98-.2-.1-.39-.29-.69-.29-1.08-.69-2.25-1.08-3.43-1.47-.78-.39-1.57-.68-2.45-.88-1.66-.69-3.23-1.17-4.9-1.47-1.96-.49-3.82-.78-5.78-.98h-.1c-2.06-.29-4.11-.39-6.17-.39-5.68 0-11.26.88-16.55 2.64-.98.2-1.86.59-2.84.98-1.08.39-2.25.88-3.33 1.37-1.37.59-2.74 1.27-4.02 2.15-.98.49-1.86 1.08-2.84 1.66-1.08.69-2.06 1.37-3.04 2.15-1.17.78-2.25 1.66-3.23 2.74-.88.69-1.66 1.47-2.45 2.25-1.27 1.18-2.45 2.45-3.43 3.82-.69.88-1.47 1.76-2.15 2.74-.59.88-1.27 1.86-1.86 2.84-.78 1.17-1.57 2.45-2.15 3.82-.1.1-.1.2-.2.29-.1.2-.2.29-.2.49-.78 1.57-1.47 3.13-2.06 4.7-.29.59-.49 1.17-.59 1.76-.49 1.17-.88 2.35-1.08 3.52-.29.69-.39 1.27-.59 1.96-.39 1.86-.69 3.72-.88 5.58-.39 2.15-.49 4.41-.49 6.66 0 .59 0 1.08.1 1.57 0 .49.1 1.08.1 1.57v.1c.1 1.17.2 2.45.39 3.62.49 3.62 1.37 7.15 2.55 10.67 1.17 3.53 2.74 6.76 4.7 9.89 1.27 2.06 2.64 4.11 4.21 6.07.78.98 1.57 1.86 2.45 2.74.78.98 1.67 1.86 2.55 2.64.88.88 1.76 1.57 2.64 2.35 3.04 2.45 6.27 4.6 9.89 6.46 1.96.98 3.92 1.86 5.87 2.55 1.76.69 3.52 1.17 5.29 1.66.49.1.98.2 1.47.29.39.1.78.2 1.17.29 1.37.29 2.84.49 4.31.59 2.15.39 4.31.49 6.56.49 1.08 0 2.15 0 3.23-.2 2.45-.2 4.8-.49 7.25-.98 1.17-.29 2.35-.59 3.52-.88 1.17-.29 2.35-.69 3.53-1.08 2.25-.88 4.5-1.76 6.66-2.94 1.08-.49 2.15-1.08 3.23-1.76 3.13-1.86 6.17-4.11 8.81-6.66.88-.69 1.66-1.47 2.45-2.35.78-.78 1.47-1.57 2.15-2.35 1.37-1.66 2.64-3.33 3.82-5.19a29.41 29.41 0 002.25-3.82c.1-.1.1-.1.1-.2.29-.39.49-.78.69-1.17.49-.98.98-1.96 1.37-2.94.1-.2.2-.29.2-.49 1.17-2.74 2.15-5.48 2.74-8.32.1-.49.29-1.08.39-1.66.29-1.76.59-3.43.78-5.19v-.29c.2-1.67.29-3.23.29-4.9v-1.08c-.05-2.31-.15-4.66-.54-7.01zm-28.98 19.88a25.44 25.44 0 01-8.62 9.79c-7.93 5.68-18.6 6.85-27.91 2.15-13.32-6.76-18.7-23.21-11.95-36.52.88-1.67 1.86-3.23 3.04-4.6 7.83-9.99 21.84-13.32 33.49-7.34 9.6 4.8 15.08 14.49 14.88 24.48.01 4.11-.87 8.22-2.93 12.04zM862.08 756.76c-6.56 6.36-14.1 11.85-22.52 16.74-33.59 19.39-81.18 27.42-136.79 24.28-9.5-.49-19.29-1.37-29.28-2.64-70.21-8.32-150.5-32.9-230.6-73.54-91.65-46.51-166.66-105.56-215.42-164.9-5.87-7.15-11.46-14.3-16.45-21.44-42.5-59.44-57.38-117.5-34.96-161.76v-.1c28.49-56.3 110.84-77.16 214.34-63.45l-14 27.22c-88.13-12.24-156.18 2.94-178.6 47.29-17.53 34.47-4.41 80.88 31.63 129.94 5.19 7.05 10.87 14.2 17.04 21.44 47.1 55.03 120.93 111.73 210.82 157.26 79.51 40.34 158.53 65.31 225.7 74.32 10.18 1.37 20.07 2.35 29.67 2.94 46.22 3.13 85.09-2.45 112.41-16.94 8.91-4.6 16.55-10.28 22.72-16.84 1.17 8.33 6.26 15.97 14.29 20.18z"/><path class="st1" d="M899 684.69c-23.21-11.75-50.92-5.09-66.49 14.49-2.15 2.84-4.21 5.87-5.87 9.2-7.44 14.59-7.44 31.04-1.57 45.04 3.13 7.64 8.03 14.59 14.49 20.07 3.23 2.84 6.85 5.29 10.77 7.25 26.44 13.41 58.95 2.74 72.36-23.7 13.52-26.53 2.84-58.94-23.69-72.35zm-.1 60.32c-6.76 13.32-23.11 18.7-36.52 11.95-.1-.1-.2-.1-.29-.2-8.03-4.21-13.12-11.85-14.3-20.17-.78-5.39 0-10.97 2.64-16.16.88-1.66 1.86-3.23 3.04-4.6 7.83-9.99 21.84-13.32 33.49-7.34 13.41 6.75 18.79 23.1 11.94 36.52zM611.21 147.11c0-.29-.1-.69-.1-.98-.1-.49-.2-.98-.29-1.47-.39-2.06-.88-4.01-1.47-5.97-.1-.69-.29-1.27-.59-1.86a57.42 57.42 0 00-3.52-7.93c-.88-1.47-1.76-2.94-2.74-4.41-.88-1.27-1.76-2.45-2.64-3.62-.1-.2-.29-.39-.49-.59a60.424 60.424 0 00-3.43-3.72c-2.15-2.15-4.5-4.11-6.95-5.87-.49-.39-.98-.69-1.47-.98-1.27-.78-2.55-1.57-3.82-2.25 0 0-.1-.1-.2-.1-.39-.29-.78-.49-1.17-.69-.2-.1-.49-.2-.78-.29-.2-.1-.39-.29-.69-.29-1.08-.69-2.25-1.08-3.43-1.47-.78-.39-1.57-.68-2.45-.88-1.66-.69-3.23-1.17-4.9-1.47-1.96-.49-3.82-.78-5.78-.98h-.1c-2.06-.29-4.11-.39-6.17-.39-5.68 0-11.26.88-16.55 2.64-.98.2-1.86.59-2.84.98-1.08.39-2.25.88-3.33 1.37-1.37.59-2.74 1.27-4.02 2.15-.98.49-1.86 1.08-2.84 1.66-1.08.69-2.06 1.37-3.04 2.15-1.17.78-2.25 1.66-3.23 2.74-.88.69-1.66 1.47-2.45 2.25-1.27 1.18-2.45 2.45-3.43 3.82-.2.1-.39.29-.49.49-.59.69-1.08 1.47-1.67 2.25-.59.88-1.27 1.86-1.86 2.84-.78 1.17-1.57 2.45-2.15 3.82-.1.1-.1.2-.2.29-.1.2-.2.29-.2.49-.78 1.57-1.47 3.13-2.06 4.7-.29.59-.49 1.17-.59 1.76-.49 1.17-.88 2.35-1.08 3.52-.29.69-.39 1.27-.59 1.96-.39 1.86-.69 3.72-.88 5.58-.29 2.84-.49 5.48-.39 8.23 0 .49.1 1.08.1 1.57v.1c.1 1.17.2 2.45.39 3.62.49 3.62 1.37 7.15 2.55 10.67a60.53 60.53 0 004.7 9.89c1.27 2.06 2.64 4.11 4.21 6.07.78.98 1.57 1.86 2.45 2.74.78.98 1.67 1.86 2.55 2.64.88.88 1.76 1.57 2.64 2.35 3.04 2.45 6.27 4.6 9.89 6.46 1.96.98 3.92 1.86 5.87 2.55 1.76.69 3.52 1.17 5.29 1.66.49.1.98.2 1.47.29 1.76.39 3.62.69 5.48.88 3.23.39 6.46.49 9.79.29 2.45-.2 4.8-.49 7.25-.98 1.17-.29 2.35-.59 3.52-.88 1.17-.29 2.35-.69 3.53-1.08 2.25-.88 4.5-1.76 6.66-2.94 1.08-.49 2.15-1.08 3.23-1.76 3.13-1.86 6.17-4.11 8.81-6.66.88-.69 1.66-1.47 2.45-2.35.78-.78 1.47-1.57 2.15-2.35 1.37-1.66 2.64-3.33 3.82-5.19a29.41 29.41 0 002.25-3.82c.1-.1.1-.1.1-.2.29-.39.49-.78.69-1.17.49-.98.98-1.96 1.37-2.94.1-.2.2-.29.2-.49 1.17-2.74 2.15-5.48 2.74-8.32.1-.49.29-1.08.39-1.66.29-1.76.59-3.43.78-5.19v-.29c.2-1.67.29-3.23.29-4.9v-1.08c-.05-2.31-.15-4.66-.54-7.01zm-28.98 19.88a25.44 25.44 0 01-8.62 9.79c-7.93 5.68-18.6 6.85-27.91 2.15-13.32-6.76-18.7-23.21-11.95-36.52.88-1.67 1.86-3.23 3.04-4.6 7.83-9.99 21.84-13.32 33.49-7.34 9.6 4.8 15.08 14.49 14.88 24.48.01 4.11-.87 8.22-2.93 12.04z"/><g><path class="st1" d="M816.84 617.81l-9.3-29.18c70.99-53.66 108.3-112.61 92.92-159.71-27.22-82.94-207.1-98.51-401.76-34.76-159.41 52.19-279.46 141.3-302.77 217.38-3.04 9.6-4.41 19-4.11 28-1.27-.98-2.55-1.86-4.01-2.55-6.56-3.43-14-3.82-20.47-1.67.2-9.11 1.57-18.31 4.11-27.71 23.79-88.91 148.93-188.79 317.26-243.92 207.49-67.86 402.15-42.11 434.86 57.58 19.69 60.04-23.79 132.99-106.73 196.54z"/></g><path class="st1" d="M199.86 613.21c-1.27-.68-2.55-1.27-3.92-1.66-7.93-3.43-16.35-4.6-24.48-3.92-14.69 1.08-28.59 8.13-38.09 20.07-2.15 2.84-4.21 5.87-5.88 9.2-13.41 26.44-2.74 58.95 23.7 72.36 26.44 13.42 58.95 2.74 72.36-23.7 13.52-26.53 2.84-58.94-23.69-72.35zm-.1 60.31c-6.76 13.32-23.11 18.7-36.52 11.95-13.32-6.76-18.7-23.21-11.95-36.52.88-1.66 1.86-3.23 3.04-4.6 3.43-4.31 7.93-7.44 13.02-9.01 6.46-2.15 13.9-1.76 20.47 1.67 1.47.68 2.74 1.57 4.01 2.55 10.38 7.62 14.1 22.02 7.93 33.96z"/><path d="M560.38 499.72c-19.46-9.86-42.71-4.27-55.77 12.15-1.81 2.38-3.53 4.93-4.93 7.72-11.25 22.17-2.3 49.44 19.87 60.69s49.44 2.3 60.69-19.88c11.35-22.24 2.4-49.42-19.86-60.68z" fill-rule="evenodd" clip-rule="evenodd" fill="#fff"/></svg>